<svg viewBox="0 0 400 400" xmlns="http://www.w3.org/2000/svg" height="400" width="400" id="Online-Shopping-6--Streamline-Brooklyn.svg"><desc>Online Shopping 6 Streamline Illustration: https://streamlinehq.com</desc><path d="M373.95 220.446a47.8 47.8 0 0 0 -9.95 -16.23 50.98 50.98 0 0 0 -13.086 -11.37c1.578 -14.286 -8.76 -24.2 -12.884 -36.95 -2.782 -8.75 -2.18 -17.976 -2.4 -24.302 -0.278 -8.8 -2.6 -23.4 -9.026 -32.446 -4.538 -6.416 -11.11 -10.158 -20.322 -7.644a30.2 30.2 0 0 0 -7.084 -2.284c-19.91 -4.42 -40.4 13.578 -39.95 33.488a1.388 1.388 0 0 0 1.482 1.412l5.566 -0.152c0.946 9.912 1 15.9 -3.16 22.892 -3.298 5.538 -6.968 9.174 -9.212 15.638 -5.31 15.22 2.456 19.144 3.38 24.4a5.748 5.748 0 0 1 -1.444 4.41 61.812 61.812 0 0 0 -22.304 20.926 43.2 43.2 0 0 0 -2.73 5.776 0.876 0.876 0 0 0 1.574 0.764c1.012 -1.76 2.762 -4.09 3.424 -5.082a64.336 64.336 0 0 1 9.166 -10.85c13.016 -12.436 23.162 -14.836 30.784 -16.096a48.542 48.542 0 0 1 9.02 -0.686l0 0.2a0.95 0.95 0 0 0 1.898 0c0.212 -7.318 0.494 -8.172 0.222 -17.93a21.458 21.458 0 0 0 9.128 -1.838c1.522 -0.9 2.322 -1.322 2 -2.18 -0.314 -0.812 -1.088 -0.614 -2.87 -0.288 -0.232 0.042 -0.464 0.094 -0.694 0.158 -6.506 1.758 -12.268 2.494 -17.474 -3.344 -4.366 -4.896 -5.522 -13.564 -5.904 -20.072a67.8 67.8 0 0 1 0.226 -9.32c1.8 2.236 5.47 2.54 6.446 0.566 1.3 -2.626 -3.232 -5.924 -6.058 -4.422 0.132 -1.104 0.29 -2.042 0.61 -3.8l11.644 -0.316a1.474 1.474 0 0 0 1.296 -0.916 43.494 43.494 0 0 1 14.814 -18.942c-0.04 3.532 -0.018 7.058 0 10.58a8.702 8.702 0 0 0 -9.35 1.664c-0.6 0.8 -1.542 2.712 -0.556 3.224 0.72 0.374 0.734 -0.15 2.454 -1.272a6.634 6.634 0 0 1 3.146 -1.334 9.724 9.724 0 0 1 4.318 0.552 177.716 177.716 0 0 1 -1.586 27.898 1.44 1.44 0 0 0 1.064 1.63 1.454 1.454 0 0 0 1.714 -0.978c2.106 -6.692 4.988 -12.778 6.48 -19.662a11.302 11.302 0 0 0 0.788 0.874c-0.092 2.17 -0.742 13.642 -0.972 17.2 -1.424 20.892 -9.962 55.648 15.23 65.148a1.336 1.336 0 0 0 1.388 -2.2c-5.976 -5.574 -7.678 -15.34 -7.916 -23.494a61.724 61.724 0 0 1 45.506 22.646 118.61 118.61 0 0 1 10.462 15.134 0.942 0.942 0 0 0 1.702 -0.78Z" fill="#191919" stroke-width="1"></path><path d="M389.968 274.91c-0.18 -3.298 -1.148 -3.172 -2.732 -14.31 -1.8 -13 -3.278 -29.734 -9.12 -39.746a1.4 1.4 0 0 0 -1.8 -0.578c-32.368 15.056 -66.666 11.134 -101.888 6.24 -16.902 -2.352 -30.572 -2.382 -46.8 -7.684a1.476 1.476 0 0 0 -1.574 0.43c-9.692 11.43 -16.876 22.306 -21.154 36.664a1.452 1.452 0 0 0 0.184 1.152c0.854 1.582 4.286 0.046 8.426 1.8a10.95 10.95 0 0 1 4.258 2.984c2 2.378 4.25 6.8 9.4 7.282a9.482 9.482 0 0 0 6.11 -1.712 1.418 1.418 0 0 0 0.556 -1.722c-1.618 -4.02 -5.236 -13.266 -5.508 -14.04 -0.278 -0.978 -0.342 -1.558 0.648 -2 1.96 -0.838 6.754 -0.302 10.184 -0.434a100.936 100.936 0 0 1 11.85 0.702c9.148 0.728 11.744 2.046 14.582 13.244a1.262 1.262 0 0 0 1.112 1.024c6.182 0.688 10.168 6.516 12.868 12.11a22.418 22.418 0 0 1 2.64 8.878 1.134 1.134 0 0 0 0.832 1.098 157.5 157.5 0 0 0 36.432 7.162 0.916 0.916 0 0 0 0.972 0.05l0.418 0.018a0.876 0.876 0 0 0 0.926 -0.934c2.786 -1.418 7.63 -0.056 11.064 -1.098 5.91 -1.8 9.744 -6.552 16.294 -5.726 4.64 0.588 9.046 3.264 14.212 2.964s7.436 -4.308 11.526 -6.032c2.918 -1.168 5.902 -0.15 9.12 -0.51 4.17 -0.47 6.28 -2.804 5.962 -7.276Zm-62.264 15.434c-1.072 0.096 -1.168 -1.312 -1.62 -3.506a107.72 107.72 0 0 1 -1.482 -15.428c0 -0.6 0.094 -1.172 0.14 -1.76 0.28 -1.816 0.352 -2.614 1.2 -2.6 0.754 0.014 0.854 0.7 1.156 2.574 0.048 0.57 0.186 1.12 0.232 1.69 0.232 2.262 0.324 4.532 0.556 6.8 0.252 2.49 0.788 6.976 0.788 8.6 0.004 2.016 0.15 3.528 -0.97 3.63Z" fill="#000000" stroke-width="1"></path><path d="M65.786 186.464c1.486 -0.052 59.098 -2.346 62.116 -2.362a0.974 0.974 0 0 0 0.97 -0.92 0.942 0.942 0 0 0 -0.93 -0.95c-3.284 -0.116 -6.564 -0.366 -9.854 -0.352 -7.6 0.036 -15.23 0.616 -22.838 0.828 -12.974 0.362 -19.066 0.38 -29.616 2.048a0.888 0.888 0 0 0 -0.786 0.936 0.876 0.876 0 0 0 0.938 0.772Z" fill="#000000" stroke-width="1"></path><path d="M129.574 173.896c-0.522 -4.158 -0.854 -6.91 -1.25 -11.4a1.16 1.16 0 0 0 -1.158 -1.068c-21.616 -0.48 -42.272 -0.046 -62.17 0.966a1.422 1.422 0 0 0 -1.342 1.46c0 4.128 0.422 9 0.786 13.114a1.444 1.444 0 0 0 1.436 1.31c11.854 0.176 38.42 -2.708 62.448 -2.916Z" fill="#000000" stroke-width="1"></path><path d="M359.136 317.716c-23.026 16.2 -54.104 3.064 -79.528 -9 -0.966 -0.498 -2.654 0.454 -2.222 1.824 1 3.106 4.03 8.762 1.942 11.578 -1.302 1.764 -5 1.652 -7.176 1.518 -7.146 -0.418 -15.67 -0.826 -21.57 -5 -2.544 -1.87 -3.092 -5.322 -3.936 -8.638 -1.2 -5.422 -2.728 -7.2 -5.278 -8.934 -2.452 -1.658 -5.724 -2.8 -7.868 -4.288a1.438 1.438 0 0 0 -2.222 1.268s1.8 26.8 2.222 32.928a1.44 1.44 0 0 0 1.158 1.306c26.474 5.64 60.294 6.562 87.444 5.926 11.714 -0.31 23.87 0.248 35.554 -2.288a0.866 0.866 0 0 0 1.342 -0.6c0.6 -4.8 1.432 -9.138 1.8 -16.698a1.058 1.058 0 0 0 -1.662 -0.902Z" fill="#000000" stroke-width="1"></path><path d="M279.978 131.322c0 2.682 0.378 3.26 -1.158 4.174a10.506 10.506 0 0 0 -2.176 1.48 3.658 3.658 0 0 0 2.13 6.276c1.262 0.2 2.282 0.268 2.454 -0.676 0.086 -0.966 -0.704 -0.946 -1.574 -1.434a2.308 2.308 0 0 1 -1.298 -1.454c-0.07 -0.976 1.232 -1.036 2.964 -2.414a4.844 4.844 0 0 0 1.48 -4.68 6.6 6.6 0 0 0 -0.276 -1.568c-0.518 -2.146 -0.904 -2.936 -1.622 -2.882 -0.99 0.072 -0.924 1.434 -0.924 3.178Z" fill="#191919" stroke-width="1"></path><path d="m293.508 145.254 -0.324 -0.052a21.522 21.522 0 0 1 -13.378 1.466 16.586 16.586 0 0 0 1.02 6.234c1.896 4.914 7.22 6.35 10.554 2.528a12.03 12.03 0 0 0 2.128 -10.176Z" fill="#000000" stroke-width="1"></path><path d="M294.342 145.066c2.542 8.442 -3.16 15.458 -9.35 13.72a8.66 8.66 0 0 1 -5.556 -5.354 19.814 19.814 0 0 1 -1.064 -6.776 1.4 1.4 0 0 1 0.6 -1.126c1 -0.844 1.548 0.452 6.156 0.23a31.78 31.78 0 0 0 7.73 -1.424c0.472 -0.194 1.402 0.132 1.484 0.73Zm-1.574 1.372a20.028 20.028 0 0 1 -11.48 2 13.186 13.186 0 0 0 0.878 3.942c2.186 5.436 8.41 5.262 10.138 -2.016a14.786 14.786 0 0 0 0.464 -3.926Z" fill="#191919" stroke-width="1"></path><path d="M288.5891472634 131.104231804a5.082 2.802 -26.32 1 0 9.1103155488 -4.506555958 5.082 2.802 -26.32 1 0 -9.1103155488 4.506555958Z" fill="#191919" stroke-width="1"></path><path d="M231 271.09a10.016 10.016 0 0 0 4.814 4.374 64.318 64.318 0 0 0 14.814 4.334 59.468 59.468 0 0 0 10.786 1.286 0.936 0.936 0 1 0 0.278 -1.85c-8.696 -2.262 -7.946 -1.522 -14.72 -3.158 -3.504 -0.846 -12.222 -3.154 -14.536 -5.934a0.86 0.86 0 1 0 -1.436 0.948Z" fill="#191919" stroke-width="1"></path><path d="M231.834 281.658a20.938 20.938 0 0 0 7.822 5.306c0.758 0.238 2.832 0.778 3.2 -0.176 0.564 -1.468 -3.118 -2.612 -5.788 -4.416 -2.826 -1.91 -5 -4.576 -6.018 -3.786 -0.776 0.614 0.074 1.976 0.784 3.072Z" fill="#191919" stroke-width="1"></path><path d="M232.11 289.848a6.296 6.296 0 0 0 0.974 1.944 16.926 16.926 0 0 0 7.314 4.186 9.764 9.764 0 0 0 2.176 0.31 0.954 0.954 0 0 0 1.2 -0.566 0.942 0.942 0 0 0 -0.556 -1.2 11.488 11.488 0 0 0 -1.896 -1.154 27 27 0 0 1 -7.824 -4.498 0.85 0.85 0 1 0 -1.39 0.976Z" fill="#191919" stroke-width="1"></path><path d="M278.682 310.772c-5.024 2 -9.814 0.586 -15.046 -0.718 -9.8 -2.44 -20.978 -4.31 -28.886 -10.762a0.858 0.858 0 0 1 1.064 -1.348c7.082 5.506 19.188 7.242 28.47 9.4 4.69 1.094 9.35 2.622 13.75 0.6a1.344 1.344 0 0 1 1.018 -0.054c30.83 10.948 65.642 30.324 87.816 0.022a46.658 46.658 0 0 0 8.564 -21.822 0.932 0.932 0 0 1 1.018 -0.832 0.918 0.918 0 0 1 0.834 1.036 46.8 46.8 0 0 1 -8.24 23.178c-23.126 33.464 -63.884 10.416 -90.362 1.3Z" fill="#191919" stroke-width="1"></path><path d="M144.526 222.984c17.578 1.83 25.17 5.674 33.47 14.05a61.338 61.338 0 0 1 4.49 4.85 0.942 0.942 0 1 0 1.528 -1.102 39.748 39.748 0 0 0 -17 -15.372 45.442 45.442 0 0 0 -15.6 -4.214 46.684 46.684 0 0 0 -6.898 0.07 0.86 0.86 0 1 0 0 1.718Z" fill="#191919" stroke-width="1"></path><path d="M170.08 243.708a13.914 13.914 0 0 0 -6.528 -9.836 0.93 0.93 0 0 1 -0.462 -1.242 0.95 0.95 0 0 1 1.25 -0.462 13.704 13.704 0 0 1 8.702 12.092 1.44 1.44 0 0 1 -0.648 1.374c-3.472 2.148 -4.224 4.704 -3.2 7.106 1.686 3.928 7.782 7.488 11.574 8.264a0.86 0.86 0 0 1 -0.186 1.708c-10.466 -0.218 -20.664 -11.9 -10.502 -19.004Z" fill="#191919" stroke-width="1"></path><path d="M176.7 268c-6.552 -0.218 -10.644 -4.672 -13.334 -10.762a0.866 0.866 0 0 1 0.232 -1.19 0.876 0.876 0 0 1 1.2 0.25c4.374 4.43 6.11 8.974 12.732 8.86a1.4 1.4 0 0 1 1.34 0.838c1.112 2.64 0.738 1.102 2.686 5.99a0.928 0.928 0 0 1 -1.62 0.902A27 27 0 0 1 176.7 268Z" fill="#191919" stroke-width="1"></path><path d="M185.032 284.4c0.288 0.752 2.876 5.418 3.564 6.5 0.68 0.836 1.734 2.45 2.64 1.908 1.546 -0.85 -1.098 -4.944 -1.898 -6.416s-2.942 -5.71 -4.306 -4.982c-0.852 0.39 -0.396 1.714 0 2.99Z" fill="#191919" stroke-width="1"></path><path d="M202.16 313.254a21.108 21.108 0 0 0 3.148 4.314 19.8 19.8 0 0 0 11.248 5.43 21.446 21.446 0 0 0 16.76 -4.866 0.952 0.952 0 0 0 0.23 -1.3 0.94 0.94 0 0 0 -1.296 -0.264 34.088 34.088 0 0 1 -4.444 1.968c-8.314 3.142 -14.762 1.94 -20.692 -2.958a31.558 31.558 0 0 1 -3.52 -3.32 0.874 0.874 0 0 0 -1.434 0.996Z" fill="#191919" stroke-width="1"></path><path d="M215.624 275.54c-0.522 -0.776 -5.922 -7.29 -6.944 -8.49 -0.476 -0.538 -0.4 0.084 0.98 -2.622 0.6 -1.11 1.064 -2.24 1.62 -3.36a0.936 0.936 0 0 0 -1.574 -1.014 41.026 41.026 0 0 0 -3.38 4.612c-2.084 -2.088 -4.12 -4.25 -6.156 -6.43 -1.82 -2 -3.43 -3.784 -4.444 -4.714 -1.388 -1.268 -1.878 -2.054 -2.638 -1.454 -0.844 0.674 0.126 1.924 1.712 4.2 1.944 2.8 17.744 20.03 19.064 21.29 1.4 1.328 2.2 2.17 2.964 1.564s0.09 -1.658 -1.204 -3.582Z" fill="#191919" stroke-width="1"></path><path d="M329.6 228.622a10.4 10.4 0 0 0 -0.046 -5.332c-0.13 -0.502 -0.416 -0.936 -0.926 -0.932 -1.6 0.016 -1.2 4.644 -0.786 6.212 0.328 1.23 1.43 1.136 1.758 0.052Z" fill="#191919" stroke-width="1"></path><path d="M279.328 224.358a29.492 29.492 0 0 1 2.5 -5.04c0.62 -1 2.062 -2.96 1.158 -3.714 -0.716 -0.672 -2.414 0.8 -2.684 1.08a16.264 16.264 0 0 0 -3.52 6.878c-0.128 0.814 -0.2 2.552 0.696 2.75 0.768 0.17 1.792 -1.754 1.85 -1.954Z" fill="#191919" stroke-width="1"></path><path d="M245.352 221.84a30.318 30.318 0 0 0 1.294 -6.434 0.946 0.946 0 0 0 -1.8 -0.57 14.854 14.854 0 0 0 -1.2 6.712c0.154 1.314 1.302 1.268 1.706 0.292Z" fill="#191919" stroke-width="1"></path><path d="M330.158 293.518c-0.834 -0.11 -22.2 -3.6 -29.766 -5.184 -6.342 -1.32 -12.638 -2.82 -18.8 -4.508 -2.81 -9.042 -7.544 -14.532 -12.824 -17.412a0.936 0.936 0 0 0 -1.076 0.082c-1.074 -4.8 -2.89 -11.292 -6.7 -14.436 -3.882 -3.2 -26.624 -4.7 -29.814 -4.574a4.548 4.548 0 0 0 -3.98 1.842c-1.168 2 0.02 4.252 0.74 6.338 1.372 3.96 3.624 8.72 5.324 13.026a0.88 0.88 0 0 0 1.668 -0.56c-5.028 -16.4 -6.504 -17.22 -4.63 -17.67 2.366 -0.576 25.882 1.458 28.84 3.8 2.776 2.268 3.95 6.3 5 9.5a119.456 119.456 0 0 1 3.24 11.942 0.942 0.942 0 0 0 1.852 -0.342c-0.356 -2.39 -0.712 -4.8 -1.19 -7.174 5.352 3.632 9.33 11.116 11.05 17.22a1.434 1.434 0 0 0 0.972 0.972 274.53 274.53 0 0 0 39.812 8.114c4.426 0.506 8.092 0.6 10.09 0.742a0.862 0.862 0 1 0 0.192 -1.718Z" fill="#191919" stroke-width="1"></path><path d="M248.22 257.088c2.02 0.284 4.378 0.028 5.696 1.092a11.766 11.766 0 0 1 2.6 4.364c3.524 8.268 3.902 13.082 5.6 12.556 1.19 -0.348 0.578 -1.7 -0.278 -5.6a47.462 47.462 0 0 0 -2.684 -8.11 12.524 12.524 0 0 0 -3.426 -5.466c-2.132 -1.706 -4.75 -1.376 -7.128 -1.686a69.716 69.716 0 0 0 -9.768 -0.842c-2.146 -0.02 -4.168 -0.264 -4.168 0.852 -0.118 1.152 0.736 1.032 13.556 2.84Z" fill="#191919" stroke-width="1"></path><path d="M245.632 267.174a18.154 18.154 0 0 0 -1.346 -4.688 4.352 4.352 0 0 0 -3.42 -3.118 8.056 8.056 0 0 0 -4.476 0.054 1.924 1.924 0 0 0 -1.312 1.9c0.94 2.132 0.318 7.436 4.114 8.474a14.562 14.562 0 0 0 2.582 0.6c2.384 0.236 4.124 -0.87 3.858 -3.222Z" fill="#191919" stroke-width="1"></path><path d="M270.164 313.336c-0.032 3.448 1.6 4.388 -0.648 7.056 -0.78 0.926 0.112 2.102 1.2 1.43 2.89 -1.78 2.308 -5.774 1.112 -8.764 -0.46 -1.154 -1.654 -0.826 -1.664 0.278Z" fill="#191919" stroke-width="1"></path><path d="M244.702 306.62a17.2 17.2 0 0 0 2.64 11.624c2.6 3.384 6.8 4.338 10.924 5.314a50.914 50.914 0 0 0 16.944 2.314 6.128 6.128 0 0 0 4.582 -1.842c2.024 -2.328 0.524 -6.8 -0.278 -10.874a0.94 0.94 0 0 0 -1.852 0.32 59.306 59.306 0 0 1 0.464 6.476 3.236 3.236 0 0 1 -0.464 2.286c-1.318 1.474 -8.6 0.656 -10.554 0.376 -2.656 -0.37 -5.6 -1.264 -8.2 -1.87 -3.4 -0.8 -7.2 -1.56 -9.35 -4.236a19.91 19.91 0 0 1 -3.148 -9.874 0.858 0.858 0 0 0 -1.708 -0.014Z" fill="#191919" stroke-width="1"></path><path d="M179.246 305.44a25.346 25.346 0 0 0 -3.056 -3.566c-3.374 -3.27 -8.64 -4.4 -11.758 -0.63a13.524 13.524 0 0 0 -2.084 10.722c1.448 6.976 10.8 15.634 16.48 19.86v0.064a0.858 0.858 0 0 0 1.066 0.042c0.23 0 13.112 -8.022 17.728 -17.776 5.836 -11.924 -6.746 -25.328 -18.376 -8.716Z" fill="#000000" stroke-width="1"></path><path d="M190.634 82.318c0.092 -1 0.74 -9.342 -3.2 -15.19a13.082 13.082 0 0 0 -9.114 -5.748c-12.756 -2.158 -124.6 4.34 -155.82 5.848a11.8 11.8 0 0 0 -9.072 5.53C10.6 77.012 10.16 82.776 10.51 87.864c0 -3.956 -0.508 180.882 -0.508 181.084 0 6.916 3.028 11.85 9.766 11.928 3.102 0.038 153.968 0 155.496 0.028 8.15 0.146 14.884 -4.038 15.37 -12.466 0.28 -4.126 0 -185.466 0 -186.12Zm-2.87 185.934a9.316 9.316 0 0 1 -3.844 7.444 14.866 14.866 0 0 1 -8.516 2.314c-24.634 0 -153.186 0.052 -155.636 0.024a6.112 6.112 0 0 1 -5.368 -2.6 11.174 11.174 0 0 1 -1.574 -6.356c0.274 -0.2 -0.49 -177.348 -0.492 -177.62 4.262 -0.108 166.214 -5.322 175.444 -5.652 0.064 15.548 0.222 178.382 -0.014 182.446Z" fill="#000000" stroke-width="1"></path><path d="M35.242 234.514a0.858 0.858 0 0 0 -1.388 -0.74c-0.242 0 -5.496 3.8 -5.926 4.114 -2.87 2.132 -5.6 4.4 -5.6 4.4a1.438 1.438 0 0 0 0 2.27l11.11 8.32a1.45 1.45 0 0 0 2.314 -1.15 160.69 160.69 0 0 0 -0.51 -17.214Zm-1.944 2.258c-2.536 2.366 -5.06 4.47 -7.732 6.6l7.316 5.458a116.422 116.422 0 0 1 0.416 -12.058Z" fill="#191919" stroke-width="1"></path><path d="M152.674 230.656a0.92 0.92 0 0 0 -1.482 0.678c0.356 0 -0.616 2 -0.462 17.212a1.45 1.45 0 0 0 2.314 1.15l11.11 -8.318a1.45 1.45 0 0 0 0 -2.272c-3.708 -2.924 -7.552 -5.926 -11.48 -8.512Zm0.508 2.936a115.89 115.89 0 0 1 0.418 12.066l7.314 -5.458c-2.678 -2.142 -5.198 -4.244 -7.732 -6.6Z" fill="#191919" stroke-width="1"></path><path d="M72.178 227.616a5.314 5.314 0 0 0 -5.232 -5.458c-2.962 -0.084 -16.2 -0.306 -18.286 -0.32a5.784 5.784 0 0 0 -5.322 3.56c-0.634 1.584 -0.464 -0.428 -0.464 28.248a5.732 5.732 0 0 0 5.786 5.8c20.378 0 19.032 0.158 20.508 -0.454a5.886 5.886 0 0 0 3.564 -5.35c-0.022 -2.742 -0.37 -22.092 -0.462 -26.03Zm-1.8 0c-0.646 27.306 -0.242 26 -0.694 27.158a2.934 2.934 0 0 1 -1.62 1.6c-0.67 0.304 0.312 0.212 -19.4 0.212a3 3 0 0 1 -2.916 -2.934c0 -28.498 -0.1 -26.52 0.232 -27.16a2.722 2.722 0 0 1 1.574 -1.6c1.066 -0.426 0.084 -0.094 19.4 -0.546a3.378 3.378 0 0 1 3.518 3.278Z" fill="#191919" stroke-width="1"></path><path d="M107.708 227a5.314 5.314 0 0 0 -5.232 -5.458c-2.962 -0.082 -16.2 -0.304 -18.284 -0.318a5.788 5.788 0 0 0 -5.324 3.56c-0.634 1.584 -0.464 -0.428 -0.464 28.246a5.734 5.734 0 0 0 5.788 5.8c20.376 0 19.03 0.156 20.506 -0.454a5.892 5.892 0 0 0 3.566 -5.352c-0.024 -2.74 -0.372 -22.09 -0.464 -26.03Zm-1.714 0c-0.2 0 -0.554 25.58 -0.554 26.03a2.948 2.948 0 0 1 -2.964 2.936c-19.94 0 -18.552 0.102 -19.4 -0.236a3.08 3.08 0 0 1 -1.574 -1.584c-0.33 -0.83 -0.232 1.372 -0.232 -27.146a2.932 2.932 0 0 1 2.918 -2.962c17.66 -0.118 18.336 -0.576 19.582 -0.12A3.428 3.428 0 0 1 106 227Z" fill="#191919" stroke-width="1"></path><path d="M142.648 227.438a5.314 5.314 0 0 0 -5.232 -5.458c-2.962 -0.082 -16.2 -0.304 -18.284 -0.318a5.788 5.788 0 0 0 -5.324 3.56c-0.634 1.584 -0.464 -0.428 -0.464 28.246a5.734 5.734 0 0 0 5.788 5.8c20.376 0 19.03 0.156 20.508 -0.454a5.896 5.896 0 0 0 3.564 -5.352c-0.024 -2.74 -0.372 -22.09 -0.464 -26.03Zm-1.8 0c-0.644 27.306 -0.24 26 -0.694 27.16a2.93 2.93 0 0 1 -1.62 1.6c-0.668 0.306 0.312 0.214 -19.4 0.214a3 3 0 0 1 -2.918 -2.936c0 -28.498 -0.098 -26.52 0.232 -27.158a2.718 2.718 0 0 1 1.574 -1.6c1.066 -0.426 0.086 -0.094 19.4 -0.546a3.378 3.378 0 0 1 3.518 3.276Z" fill="#191919" stroke-width="1"></path><path d="M87.586 324.878c0 -1.264 -0.308 -2.9 0 -18.216a15 15 0 0 0 -2.268 -9.236 10.212 10.212 0 0 0 -8.8 -4.162c-11.984 -0.25 -42.448 -0.8 -54.4 -0.282a9.326 9.326 0 0 0 -7.824 4.152 15.026 15.026 0 0 0 -1.99 8.476c-0.2 -0.168 -0.028 -1.862 -0.834 23.132 -0.234 7.256 5.4 10.648 12.638 10.286 6.664 -0.334 41.8 -1.164 51.616 -0.278 5.046 0.454 7.962 -1.416 9.676 -3.86a16.282 16.282 0 0 0 2.186 -10.012ZM70 318.706a39.03 39.03 0 0 1 -11.712 6.63 72.912 72.912 0 0 1 -19.444 4.142 1.364 1.364 0 0 1 -1.34 -0.832c-5.634 -12.906 -7.2 -18.2 -7.5 -18.2a0.884 0.884 0 0 1 0.832 -1.2v-0.078a75.218 75.218 0 0 0 29.948 -9.368 1.454 1.454 0 0 1 2.036 0.644l7.546 16.564a1.4 1.4 0 0 1 -0.366 1.698Z" fill="#000000" stroke-width="1"></path><path d="M55.024 311.42a8.46 8.46 0 0 0 -8.24 0 5.15 5.15 0 0 0 -0.092 8.274 6.744 6.744 0 0 0 8.378 0 5.114 5.114 0 0 0 -0.046 -8.274Z" fill="#000000" stroke-width="1"></path><path d="M157.948 324.838c0 -1.2 -0.306 -3.048 0 -18.218a15.318 15.318 0 0 0 -2.268 -9.234 10.2 10.2 0 0 0 -8.8 -4.158c-10.2 -0.324 -30.626 -0.824 -40.83 -0.374a9.352 9.352 0 0 0 -7.824 4.17 15.058 15.058 0 0 0 -1.99 8.49c-0.2 -0.168 -0.048 -1.862 -0.88 23.132a8.878 8.878 0 0 0 3.934 8.288 15.318 15.318 0 0 0 8.75 2c9.178 -0.46 28.786 -1.06 38.052 -0.232 5.046 0.454 7.962 -1.416 9.676 -3.86a16.282 16.282 0 0 0 2.18 -10.004Zm-33.644 2.548a3.3 3.3 0 0 1 -4.862 0c-2.2 -2.468 -0.476 -6.586 4.12 -5.092a3.2 3.2 0 0 1 0.742 5.092Zm10.912 -0.1a3.296 3.296 0 0 1 -4.86 0c-2.2 -2.464 -0.476 -6.586 4.12 -5.092a3.2 3.2 0 0 1 0.74 5.092Zm3.866 -18.6c0 0.228 -1.548 5.042 -1.986 6.326 -0.514 1.5 -1.07 2.986 -1.506 4.154a1.38 1.38 0 0 1 -1.27 0.874c-13.374 0.174 -14.496 0.374 -14.884 -0.306a9.48 9.48 0 0 1 -1.666 -3.382c-0.54 -1.568 -1.2 -3.982 -3.148 -11.174a8.344 8.344 0 0 1 -1.388 -0.122c-0.368 -0.07 -2.544 -0.584 -2.454 -1.574 0.122 -1.374 3.648 -1.158 4.906 -1.18a1.436 1.436 0 0 1 1.39 1.038 34.832 34.832 0 0 1 1.142 4.092 185.922 185.922 0 0 1 19.99 0.098 0.85 0.85 0 0 1 0.874 1.154Z" fill="#000000" stroke-width="1"></path><path d="M62.682 156.706c-5.056 6.068 -6.914 8.75 -9.906 12.056a1.436 1.436 0 0 1 -2.084 0.082c-5.828 -5.68 -12.6 -12.898 -17.916 -19.2a1.442 1.442 0 0 1 -0.092 -1.746c8.262 -12 24.538 -32.4 35.784 -39.914a38.2 38.2 0 0 1 11.944 -5.37 1.422 1.422 0 0 1 1.76 1.176 15.3 15.3 0 0 0 4.906 9.096c7.318 6.4 16.386 -0.272 18.47 -10.366a1.444 1.444 0 0 1 1.342 -1.154c11.154 -0.456 20.528 5.518 29.628 12.012 4.944 3.528 17.888 13.142 22.452 17.384a1.474 1.474 0 0 1 0.324 1.65 192.654 192.654 0 0 1 -15.462 27.028 1.362 1.362 0 0 1 -1.898 0.36c-2.572 -1.726 -9.956 -7.984 -13.564 -10.942 0.8 12.452 2.562 55.85 2.778 55.85a0.944 0.944 0 0 1 -0.926 0.898c0 0.2 -61.094 2.618 -62.68 2.668a1.374 1.374 0 0 1 -1.388 -1.218C64.76 194.742 63.236 170 62.682 156.706Zm45.412 -52.474c-1.476 5.836 -5.2 11.366 -10.786 13.324 -8.26 2.902 -15.47 -3.352 -17.682 -11.726 -9.6 2.87 -16.468 9.67 -23.286 17.104a242.638 242.638 0 0 0 -20.646 25.7c5.778 6.738 10.742 11.986 15.924 17.09 4.562 -5.458 6.148 -7.96 11.342 -13.502a1.436 1.436 0 0 1 2.452 0.934c0.878 14.932 0.79 25.134 3.334 52.4 14.166 -0.356 54.532 -1.638 60.55 -1.732 -0.232 -3.888 -3.2 -51.05 -3.75 -57.758a1.31 1.31 0 0 1 2.084 -1.15c0.016 0.012 9.518 7.702 14.72 11.774a187.254 187.254 0 0 0 13.888 -24.55c-4.4 -4 -16.032 -12.622 -21.386 -16.424 -8.096 -5.738 -16.682 -11.478 -26.758 -11.484Z" fill="#191919" stroke-width="1"></path></svg>