<svg xmlns="http://www.w3.org/2000/svg" fill="none" viewBox="0 0 400 400" height="400" width="400" id="Work-Apps--Streamline-Brooklyn.svg"><desc>Work Apps Streamline Illustration: https://streamlinehq.com</desc><g id="Work-Apps--Streamline-Brooklyn.svg"><g id="hand with phone"><path id="vector" fill="#191919" d="M150.588 304.594c2.646 -6.156 9.254 -10.4 15.78 -21.024 20.874 -33.984 -9.102 -74.874 27.09 -86.788 6.342 -2.088 39.974 -8.844 37.852 -24.81 -1.06 -7.98 -7.026 -5.738 -21.89 -4.972 -1.688 0.088 -1.044 0.136 1.504 8.528 1.828 6.018 13.248 -1.152 14.184 0.73 0.654 1.314 -5.61 4.232 -10.534 4.014 -3.192 -0.142 -4.574 -1.136 -5.564 -4.15 -2.726 -8.29 -2.142 -8.928 -4.242 -8.802 -40.852 2.472 -56.682 30.788 -94.404 85.374 -6.84 9.898 -42.204 57.798 -40.224 47.794 0.19 -0.956 -0.168 -0.628 17.604 -23.076 15.518 -19.602 30.19 -43.554 41.046 -58.102 39.718 -53.226 50.532 -54.974 94.632 -56.46 15.962 -0.538 19.098 22.634 -15.232 33.566 -9.854 3.138 -30.81 5.154 -30.374 25.676 0.286 13.454 2.332 31.744 -1.46 48.48 -4.144 18.29 -21.48 33.748 -25.768 34.022Z" stroke-width="1"></path><path id="vector_2" fill="#191919" d="M201.576 286.216c-15.362 15.878 -8.398 14.95 -26.908 30.784 -13.322 11.396 -15.118 7.73 -35.026 27.41 -1.606 1.586 -2.364 2.592 -3.192 1.824 -1.492 -1.382 2.828 -6.886 3.102 -7.206 7.324 -8.598 11.542 -10.484 23.258 -18.334 27.28 -18.276 23.39 -27.418 38.992 -39.95 23.294 -18.71 62.346 15.56 78.26 9.394 5.292 -2.05 3.24 -7.3 -1.368 -10.626 -7.84 -5.66 -8.028 -5.336 -7.616 -6.112 0.68 -1.278 2.732 0.278 4.15 1.232 3.14 2.11 9.896 5.884 10.124 11.22 0.136 3.192 -1.088 5.076 -4.058 6.34 -22.894 9.732 -57.316 -29.132 -79.718 -5.974v-0.002Z" stroke-width="1"></path><path id="vector_3" fill="#191919" d="M143.566 353.94c-0.684 6.066 -6.154 36.748 -9.212 35.984 -2.78 -0.694 9.624 -34.068 5.564 -36.074 -26.494 -13.094 -45.368 -25.004 -67.634 -43.872 -11.578 -9.812 -10.534 -12.404 -12.542 -10.854 -0.046 0.046 -41.136 31.97 -42.048 32.562 -9.71 6.3 -3.28 -5.354 41.318 -35.344 5.616 -3.776 13.854 18.904 76.8 52.036 8.214 4.324 7.844 3.238 7.752 5.564l0.002 -0.002Z" stroke-width="1"></path><path id="vector_4" fill="#191919" d="M193.96 224.602c0.982 -15.824 0.1818 -17.6 4.1498 -17.284 69.8642 5.57 69.9002 4.65 69.6402 7.662 -1.78 20.606 -0.728 20.648 -3.602 20.478 -16.596 -0.982 -51.95 -4.054 -67.77 -5.61 -3.148 -0.31 -2.728 -0.228 -2.418 -5.244v-0.002Zm4.4698 3.192c70.1882 5.334 65.6322 6.202 65.7642 3.922 0.954 -16.598 1.96 -16.458 -0.136 -16.6 -71.066 -4.804 -66.7562 -5.882 -66.8582 -4.058 -0.948 16.926 -2.3718 16.464 1.2322 16.738l-0.0022 -0.002Z" stroke-width="1"></path><path id="vector_5" fill="#191919" d="M239.11 89.608c-12.36 -0.678 -21.388 -1.304 -30.42 -1.824 -2.508 -0.144 -2.554 -0.274 -2.418 -2.736 0.454 -8.164 -0.136 -9.764 2.828 -9.578 49.808 3.152 49.852 2.508 49.528 5.928 -1.082 11.448 3.922 9.496 -19.52 8.21h0.002Zm-3.01 -2.28c20.022 1.224 19.972 1.96 20.02 0.274 0.17 -5.884 0.866 -6.592 -1.14 -6.658 -9.308 -0.312 -35.71 -2.28 -44.512 -2.918 -2.508 -0.182 -1.274 1.322 -2.052 6.202 -0.364 2.28 -1.596 1.312 27.682 3.102l0.002 -0.002Z" stroke-width="1"></path><path id="vector_6" fill="#191919" d="M187.218 249.232c29.654 2.38 82.492 2.804 82.584 4.694 0.044 0.912 -0.82 0.92 -1.414 0.958 -14.668 0.914 -69.91 0.77 -81.58 -4.304 -0.2 -0.086 -1.312 -1.486 0.408 -1.348h0.002Z" stroke-width="1"></path><path id="vector_7" fill="#191919" d="M285.582 251.92c1.356 -2.924 18.844 8.854 26.726 -3.512 1.598 -2.508 -0.038 -4.116 -7.206 -8.62 -15.718 -9.876 -15.88 -9.492 -15.278 -10.534 0.584 -1.008 1.506 -0.914 11.676 5.428 9.944 6.2 17.008 9.302 12.36 16.19 -8.306 12.31 -29.288 3.234 -28.276 1.048h-0.002Z" stroke-width="1"></path><path id="vector_8" fill="#191919" d="M294.114 223.872c4.806 -0.164 10.81 2.022 17.372 -4.56 3.916 -3.928 -5.07 -5.686 -19.976 -20.2038 -0.324 -0.316 -0.816 -0.634 -0.41 -1.186 0.6 -0.816 1.358 -0.352 5.61 2.8738 2.776 2.106 15.082 11.322 17.33 13.818 4.824 5.36 -7.95 16.938 -20.758 10.982 -2.038 -0.948 -2.908 -1.596 0.83 -1.724h0.002Z" stroke-width="1"></path><path id="vector_9" fill="#191919" d="M226.522 105.0244c38.992 2.964 39.04 2.28 38.992 4.424 -0.044 2.006 0.15 1.72 -39.996 -1.642 -1.14 -0.096 -2.93 0.136 -2.782 -1.596 0.17 -2.008 3.786 -0.912 3.786 -1.186Z" stroke-width="1"></path><path id="vector_10" fill="#191919" d="M222.828 152.5446c36.758 2.736 35.71 2.6458 36.758 2.8278 2.372 0.412 2.28 2.7942 -0.136 2.8742 -1.688 0.054 -37.306 -2.828 -37.352 -2.828 -2.052 -0.182 -3.73 -0.41 -3.648 -1.642 0.104 -1.596 1.916 -1.232 4.378 -1.232Z" stroke-width="1"></path><path id="vector_11" fill="#191919" d="M261.822 132.2506c1.772 0.568 1.552 2.61 -0.274 2.736 -1.458 0.1 -0.16 0.504 -37.944 -2.874 -1.414 -0.126 -3.592 -0.318 -3.374 -1.734 0.186 -1.208 1.65 -1.122 2.67 -1.044 0.556 0.042 38.236 2.694 38.922 2.914v0.002Z" stroke-width="1"></path><path id="vector_12" fill="#191919" d="M295.798 185.6998c4.378 -0.098 8.676 -0.58 12.086 -3.922 3.57 -3.5 3.046 -2.908 -13.088 -16.144 -1.278 -1.048 -1.824 -5.426 14.002 8.392 2.874 2.508 4.388 4.566 2.418 7.798 -7.128 11.696 -26.862 4.132 -15.414 3.876h-0.004Z" stroke-width="1"></path><path id="vector_13" fill="#191919" d="M208.19 136.7198c-9.122 0 -9.988 -14.002 -0.41 -14.002s10.124 14.002 0.41 14.002Zm-0.592 -11.994c-6.568 0 -5.928 9.534 0.912 9.486 6.34 -0.044 5.7 -9.486 -0.912 -9.486Z" stroke-width="1"></path><path id="vector_14" fill="#191919" d="M206.32 159.978c-9.03 -0.044 -9.9422 -14.094 -0.228 -14.002 9.486 0.09 10.078 14.048 0.228 14.002Zm-0.502 -11.994c-6.6122 0 -5.746 9.464 0.82 9.486 6.522 0.022 5.838 -9.486 -0.82 -9.486Z" stroke-width="1"></path><path id="vector_15" fill="#191919" d="M210.652 112.4584c-8.938 0.044 -10.124 -13.862 -0.32 -13.956 9.44 -0.09 10.17 13.908 0.32 13.956Zm0.092 -2.508c6.566 0.248 6.156 -9.254 -0.502 -9.486 -6.384 -0.224 -6.248 9.232 0.502 9.486Z" stroke-width="1"></path><path id="vector_16" fill="#191919" d="M186.664 206.588c-2.19 33.748 -2.052 33.702 -3.238 33.702 -1.368 0 -1.054 -1.46 -1.004 -2.372 1.726 -31.658 0.82 -28.322 4.242 -31.332v0.002Z" stroke-width="1"></path><path id="vector_17" fill="#191919" d="M239.2 63.1126c-2.828 -0.228 -2.326 -3.944 0.092 -3.922 2.372 0.022 2.918 3.694 -0.092 3.922Z" stroke-width="1"></path><path id="vector_18" fill="#191919" d="M246.27 61.6064c-0.228 2.098 -2.938 1.778 -3.01 -0.136 -0.066 -1.78 2.736 -1.688 3.01 0.136Z" stroke-width="1"></path><path id="Subtract" fill="#191919" fill-rule="evenodd" d="M276.036 57.8702c-12.486 -3.3322 -32.088 -4.8278 -62.346 -7.1366 -1.824 -0.1392 -3.688 -0.2812 -5.59 -0.427 -0.244 1.0918 -0.504 2.2456 -0.778 3.4658 7.814 -0.3378 18.224 0.7502 32.198 2.2234 2.498 0.2636 4.988 0.5036 7.452 0.741 10.716 1.033 20.904 2.0154 28.996 4.6542 0.024 -1.1762 0.046 -2.3528 0.068 -3.5208Zm7.928 26.6686c0.916 0.0128 1.816 0.0258 2.698 0.039 -0.04 0.5796 -0.082 1.2138 -0.128 1.9 -1.946 28.9944 -10.11 150.5982 -11.396 158.5562 -0.228 1.414 -1.742 0.958 -1.778 -0.092l-0.01 -0.26 0 -0.004c-0.004 -0.09 -0.006 -0.176 -0.01 -0.264 -0.084 -2.476 0.094 -4.962 5.336 -77.8242l1.798 -24.9896c1.894 -26.3336 2.68 -41.6374 3.138 -50.5228v-0.0002l0 -0.0004c0.14 -2.7478 0.25 -4.8816 0.352 -6.538Zm9.466 0.1484c1.026 0.0178 2.024 0.0358 2.994 0.0536 0.08 7.0116 -0.704 15.7292 -1.686 26.6518 -0.522 5.7912 -1.098 12.202 -1.632 19.3072 -2.068 27.5386 -3.19 49.5418 -4.088 67.1372 -2.56 50.153 -3.292 64.495 -18.852 69.133 -9.762 2.91 -19.746 3.412 -29.826 2.782 -2.802 -0.176 -5.43 -0.336 -7.898 -0.488l-0.002 0c-32.7676 -2.016 -37.5192 -2.308 -50.066 -9.318 -2.28 -1.276 -0.728 -4.382 1.232 -3.33 7.622 4.092 15.324 6.466 23.624 7.068 2.192 0.158 4.32 0.314 6.388 0.466 36.218 2.656 53.552 3.926 62.254 -4.13 7.988 -7.392 8.704 -22.642 10.076 -51.89l0 -0.002c0.204 -4.348 0.422 -9.0052 0.682 -13.9922 0.914 -17.558 6.522 -105.988 6.568 -106.034 0.128 -1.1858 0.204 -2.3234 0.232 -3.4146Zm-112.378 -6.5714c0.009 -1.5774 0.111 -3.1114 0.3036 -4.5956 1.3068 0.2982 2.4868 0.5678 3.554 0.8116 -1.9788 9.9406 -2.7522 24.2834 -3.8516 44.668 -0.5348 9.9166 -1.1466 21.263 -2.012 34.228 -0.1816 2.7196 -0.3 4.965 -0.3978 6.8206 -0.4112 7.7926 -0.4596 8.7114 -3.2962 9.0054 3.8492 -62.3838 5.0968 -81.3916 5.5028 -87.5766 0.1856 -2.8264 0.1954 -2.975 0.1972 -3.3614Zm15.1454 -1.3648c-0.6332 -0.0676 -1.2244 -0.1626 -2.5312 -0.4404 -0.8758 11.2778 -1.5852 19.969 -2.2186 27.7286l0 0.0012C189.96 122.2632 188.892 135.3474 187.074 164.722c0.904 0.058 2.624 -0.5478 2.69 -2.2798 1.4658 -38.2418 3.944 -61.3974 5.3878 -74.8884l0.0002 -0.0002 0 -0.0006 0 -0.0004c0.5026 -4.695 0.8798 -8.2192 1.0454 -10.8016ZM271.9 69.952c0.912 0.14 1.45 0.41 1.368 1.414 -0.068 0.8166 -0.188 0.7934 -2.52 0.3476 -4.822 -0.922 -19.1 -3.6524 -61.922 -4.4976 -0.132 -0.0024 -0.29 0.0306 -0.454 0.065 -0.518 0.1086 -1.102 0.2308 -1.142 -0.703 -0.04 -0.958 0.638 -1.186 1.504 -1.232 18.972 -0.978 44.184 1.7 63.164 4.606h0.002Z" clip-rule="evenodd" stroke-width="1"></path></g><g id="documents"><path id="vector_19" fill="#000000" d="M338.166 170.696c-3.782 1.148 -7.896 -1.23 -8.984 -5.016 -9.912 -34.506 -9.07 -31.424 -11.72 -39.95 -1.32 -4.242 -0.91 -9.566 6.248 -11.356 52.696 -13.184 46.332 -19.654 53.314 4.332 14.084 48.39 19.236 34.366 -38.856 51.99h-0.002Zm45.286 -19.702c-0.776 -4.242 -4.416 -17.286 -5.792 -22.302 -5.306 -19.344 -5.29 -24.946 -12.222 -23.122 -13.682 3.602 -27.26 7.564 -40.772 11.72 -4.192 1.29 -5.55 3.736 -4.332 8.026 0.324 1.14 9.984 34.298 11.492 38.81 2.228 6.66 8.848 3.468 16.874 1.14 33.752 -9.794 34.798 -9.166 34.752 -14.274v0.002Z" stroke-width="1"></path><path id="vector_20" fill="#000000" d="M350.89 116.0596c1.276 0.046 1.086 0.112 13.818 6.84 1.28 0.676 0.736 -0.23 6.384 20.796 2.01 7.478 2.648 8.54 0.182 9.258 -17.352 5.052 -20.75 6.114 -27.41 7.844 -2.462 0.64 -2.142 -0.228 -5.838 -12.542 -7.706 -25.676 -7.94 -26.188 -5.746 -26.908 8.058 -2.64 16.19 -4.788 18.608 -5.29l0.002 0.002Zm13.728 12.45c-0.78 -2.962 -1.552 -1.42 -9.394 0.912 -3.056 0.91 -2.788 0.854 -5.928 -9.76 -0.54 -1.826 -0.328 -1.622 -14.32 2.828 -2.282 0.726 -2.234 0.82 -1.504 3.102 3.328 10.398 6.206 20.898 9.076 31.422 0.81 2.968 0.448 1.936 26.954 -6.294 1.914 -0.594 0.916 -0.218 -4.88 -22.21h-0.004Zm-1.368 -3.83 -12.724 -6.612c1.14 3.374 2.21 6.378 3.238 9.394 0.372 1.092 0.228 0.776 9.486 -2.782Z" stroke-width="1"></path><path id="vector_21" fill="#000000" d="M341.632 139.9122c-0.146 -0.864 0.684 -1.004 1.232 -1.232 3.646 -1.512 15.14 -4.75 17.01 -5.108 0.73 -0.14 1.674 -0.362 1.916 0.638 0.388 1.602 -0.788 1.892 -17.376 6.156 -0.954 0.246 -2.612 0.55 -2.782 -0.456v0.002Z" stroke-width="1"></path><path id="vector_22" fill="#000000" d="M343.364 145.2944c-0.176 -0.822 0.5 -1.142 1.094 -1.368 5.236 -1.986 10.628 -3.184 16.098 -4.378 1.87 -0.408 2.094 1.22 0.776 1.642 -8.874 2.84 -17.542 6.108 -17.968 4.104Z" stroke-width="1"></path><path id="vector_23" fill="#000000" d="M347.47 151.4504c-2.234 -0.32 -1.958 -2.046 -0.638 -2.462 9.776 -3.094 11.128 -3.102 11.492 -1.778 0.364 1.324 -0.092 1.094 -10.854 4.242v-0.002Z" stroke-width="1"></path></g><g id="message"><path id="vector_24" fill="#000000" d="M308.522 82.448c19.838 0.236 23.252 1.504 23.578 -6.248 1.47 -34.844 -0.502 -34.774 2.144 -34.798 0.912 -0.008 0.828 0.684 0.82 1.232 -0.388 32.888 2.098 42.506 -7.024 42.414 -39.95 -0.404 -0.82 -0.044 -45.104 -0.638 -4.014 -0.054 -7.284 -3.102 -7.252 -7.068 0.074 -8.802 0.352 -17.604 0.41 -26.406 0.186 -28.14 -5.016 -24.454 34.842 -24.216 6.202 0.036 6.522 0.092 6.522 1.688 0 1.048 -0.546 1.304 -1.46 1.232 -10.338 -0.812 -20.66 -0.172 -31.012 -0.274 -8.528 -0.084 -6.23 6.84 -6.384 31.332 -0.164 26.042 -3.466 21.356 29.918 21.754l0.002 -0.004Z" stroke-width="1"></path><path id="vector_25" fill="#000000" d="M305.74 35.0634c20.75 1.322 26.814 19.698 16.282 30.876 -7.39 7.842 -14.866 5.568 -18.516 7.616 -2.28 1.28 -12.762 7.338 -14.23 4.972 -0.908 -1.462 0.084 -2.012 3.74 -8.026 1.138 -1.872 -2.794 -1.588 -6.522 -7.662 -7.688 -12.526 3.922 -27.82 19.246 -27.774v-0.002Zm-13.18 41c7.206 -2.19 9.988 -5.598 12.952 -5.61 17.604 -0.068 25.772 -19.254 12.816 -28.55 -14.952 -10.726 -35.324 1.408 -31.104 16.054 4.034 13.996 13.728 5.062 5.336 18.106Z" stroke-width="1"></path><path id="vector_26" fill="#000000" d="M344.688 27.8578c0.41 6.02 -5.518 11.986 -12.542 12.176 -6.43 0.174 -13.278 -5.472 -13.134 -12.36 0.348 -16.73808 26.452 -15.59808 25.676 0.182v0.002Zm-12.268 10.078c5.884 -0.092 10.582 -4.606 10.534 -10.216 -0.044 -5.29 -5.244 -10.02408 -10.946 -9.94208 -14.092 0.204 -14.32 20.38608 0.41 20.15808h0.002Z" stroke-width="1"></path><path id="vector_27" fill="#000000" d="M333.378 33.832c-0.592 2.508 -3.526 1.732 -3.466 -0.092 0.074 -2.236 3.238 -2.372 3.466 0.092Z" stroke-width="1"></path><path id="vector_28" fill="#000000" d="M329.912 25.8062c0 -1.688 -0.228 -5.37 1.414 -5.518 1.414 -0.128 1.98 1.322 1.962 2.554 -0.092 5.84 -0.138 7.862 -1.824 7.798 -1.916 -0.072 -1.55 -2.6 -1.55 -4.834h-0.002Z" stroke-width="1"></path></g><g id="slack"><path id="vector_29" fill="#000000" d="M196.788 76.794c-2.92 -0.268 -1.294 0.076 -45.286 -10.034 -4.334 -0.996 -6.61 -5.198 -5.428 -9.486 1.646 -5.974 9.068 -41.18406 9.486 -42.36806 1.21 -3.428 4.652 -5.474 8.164 -4.698 55.692 12.32806 51.63 7.982 47.294 27.13606 -7.518 33.202 -7.162 40.1 -14.23 39.45Zm13.91 -48.524c0.116 -6.43 -1.286 -5.02 -45.514 -14.91406 -4.06 -0.908 -6.976 0.958 -7.844 5.062C146.862 67.994 143.702 62.614 162.904 66.898c35.206 7.852 36.53 10.034 38.628 1.276 0 -0.092 9.13 -37.808 9.166 -39.906v0.002Z" stroke-width="1"></path><path id="vector_30" fill="#000000" d="M169.0142 55.1756c0.182 -4.058 2.328 -11.734 6.248 -10.854 3.606 0.81 3.296 8.536 -0.502 14.138 -2.136 3.152 -5.336 2.828 -5.746 -3.284Zm2.052 -0.228c0.156 8.164 5.102 0.184 4.332 -6.75 -0.506 -4.56 -4.414 2.462 -4.332 6.75Z" stroke-width="1"></path><path id="vector_31" fill="#000000" d="M184.976 46.74c4.06 0.082 11.408 2.236 10.808 6.248 -0.586 3.924 -10.246 3.176 -15.37 -1.734 -1.91 -1.83 -0.41 -4.616 4.56 -4.514h0.002Zm5.792 6.658c1.734 -0.274 2.56 -0.272 2.69 -1.004 0.286 -1.594 -5.654 -3.864 -9.942 -3.74 -3.556 0.102 -2.372 3.558 7.252 4.744Z" stroke-width="1"></path><path id="vector_32" fill="#000000" d="M179.502 39.4882c-0.904 3.65 -9.072 3.1442 -14.412 -0.8658 -2.734 -2.054 -1.922 -4.4502 1.186 -5.2442 3.686 -0.942 14.33 1.6442 13.226 6.1122v-0.0022Zm-5.518 0.2282c7.57 0 -0.456 -5.0722 -7.068 -4.5602 -3.466 0.268 -0.82 3.9682 7.068 4.5602Z" stroke-width="1"></path><path id="vector_33" fill="#000000" d="M188.578 28.3602c6.886 1.414 -2.068 23.658 -5.928 13.636 -1.266 -3.288 1.048 -14.638 5.928 -13.636Zm0.136 5.656c0.14 -7.98 -4.698 -0.182 -4.47 6.886 0.114 3.512 4.336 0.776 4.47 -6.886Z" stroke-width="1"></path><path id="vector_34" fill="#000000" d="M178.5 33.7422c-5.7 -0.09 -5.428 -7.708 -0.364 -7.708 4.926 0 6.156 7.8 0.364 7.708Zm-0.456 -5.336c-0.592 0.274 -1.644 0.274 -1.55 1.368 0.09 1.05 0.776 1.686 1.87 1.734 2.052 0.088 2.19 -2.828 -0.32 -3.102Z" stroke-width="1"></path><path id="vector_35" fill="#000000" d="M194.37 46.7402c-5.656 -0.022 -5.5178 -7.576 -0.7298 -7.708 5.154 -0.142 6.4758 7.73 0.7298 7.708Zm-0.4098 -5.336c-0.82 0.136 -1.734 0.182 -1.688 1.322 0.046 1.14 0.8678 1.636 1.8698 1.734 2.19 0.214 2.1442 -2.782 -0.1818 -3.056Z" stroke-width="1"></path><path id="vector_36" fill="#000000" d="M165.594 49.5658c-5.382 -0.022 -5.838 -7.64 -0.638 -7.708 5.382 -0.07 6.02 7.73 0.638 7.708Zm-0.274 -2.418c2.418 0.166 2.052 -2.896 -0.182 -2.874 -2.554 0.026 -2.006 2.722 0.182 2.874Z" stroke-width="1"></path><path id="vector_37" fill="#000000" d="M177.04 58.232c-0.046 -5.108 8.044 -4.788 8.072 0.73 0.022 4.606 -8.026 4.47 -8.072 -0.73Zm3.83 -1.276c-2.554 0.274 -1.87 2.924 0.228 3.056 2.28 0.142 2.052 -3.056 -0.228 -3.056Z" stroke-width="1"></path></g><g id="mail"><path id="vector_38" fill="#000000" d="M170.016 141.3262c1.004 4.014 -1.05 8.072 -5.336 8.938 -40.728 8.244 -49.762 14.596 -52.128 4.424 -4.252 -18.286 -3.898 -18.42 -9.622 -41.228 -0.916 -3.648 0.686 -9.152 5.61 -10.034 63.198 -11.308 45.708 -25.132 61.476 37.898v0.002Zm-2.736 0.046c-0.228 -2.554 -7.852 -36.984 -8.528 -39.95 -1.706 -7.476 -6.702 -4.828 -16.418 -2.782 -36.48 7.684 -35.116 7.936 -36.074 10.078 -1.55 3.466 -0.95 2.78 4.972 28.048 5.984 25.538 0.638 23.028 33.566 15.46 20.842 -4.79 22.53 -3.83 22.484 -10.854h-0.002Z" stroke-width="1"></path><path id="vector_39" fill="#000000" d="M123.0422 146.2522c-5.518 -0.136 -4.364 -1.27 -10.17 -25.448 -0.734 -3.054 0.592 -5.338 3.648 -6.066 26.948 -6.41 37.672 -10.216 38.902 -4.56 4.702 21.616 7.964 26.844 1.778 28.594 -3.11 0.88 -28.55 6.75 -34.158 7.48Zm35.116 -12.36c-1.596 -7.48 -2.606 -14.318 -5.154 -22.256 -0.732 -2.28 -3.958 -2.23 -4.972 -0.548 -10.8 17.938 -10.538 17.518 -13.5 15.688 -16.028 -9.91 -16.056 -10.678 -18.06 -9.35 -0.96 0.636 -0.912 1.642 -0.73 2.69 3.684 21.118 4.336 24.548 7.982 23.258 0.64 -0.226 0.534 -0.18 -3.876 -18.926 -0.87 -3.694 3.966 0.52 16.738 8.026 0.634 0.372 1.234 1.096 2.006 -0.046 7.826 -11.566 11.73 -18.882 12.724 -14.138 3.868 18.462 3.694 18.288 4.058 18.424 0.866 0.228 2.828 -0.958 2.782 -2.828l0.002 0.006Zm-8.528 -14.958c-13.544 18.926 -8.658 18.324 -19.838 11.402 -8.706 -5.39 -8.35 -5.608 -7.936 -3.876 4.064 16.976 3.328 17.096 6.066 16.51 3.874 -0.83 0.54 -0.168 23.578 -4.88 2.918 -0.596 2.144 -0.228 -1.87 -19.154v-0.002Zm-3.786 -8.482c-8.666 1.186 -16.738 3.238 -25.266 5.656 5.382 3.192 10.226 6.17 15.096 9.03 0.952 0.558 0.638 0.41 10.17 -14.686Z" stroke-width="1"></path></g></g></svg>